<svg width="53" height="53" viewBox="0 0 53 53" fill="none" xmlns="http://www.w3.org/2000/svg">
<path d="M33.9307 32.215C34.6609 34.1198 34.4228 35.8976 33.2164 37.5484C32.0101 39.1991 30.3117 40.0245 28.1212 40.0245C27.0736 40.0245 26.0818 39.7547 25.146 39.215C24.2088 38.6753 23.518 37.9611 23.0736 37.0722C20.4387 37.4531 18.2564 36.7782 16.5269 35.0474C14.7961 33.3179 14.0895 31.1039 14.4069 28.4055C13.4545 27.8658 12.7244 27.128 12.2164 26.1922C11.7085 25.255 11.4545 24.1833 11.4545 22.9769C11.4545 21.0404 12.3358 19.4766 14.0984 18.2855C15.8596 17.0957 17.5815 16.8499 19.2641 17.5484L22.2164 18.7865C22.8514 17.8023 23.6926 17.0004 24.7403 16.3807C25.7879 15.7623 26.9149 15.4214 28.1212 15.3579V11.4531H30.9783V15.7388C32.1529 16.088 33.1212 16.6353 33.8831 17.3807C34.645 18.1274 35.2958 19.1674 35.8355 20.5007H40.026V23.3579H36.1212C36.0577 24.5642 35.7326 25.6912 35.146 26.7388C34.558 27.7865 33.772 28.6277 32.7879 29.2626L33.9307 32.215ZM22.1212 33.3579C22.1212 32.5007 22.193 31.6677 22.3364 30.8588C22.4787 30.0487 22.6926 29.2626 22.9783 28.5007C22.2482 28.8499 21.4622 29.0957 20.6203 29.2379C19.7796 29.3814 18.9466 29.4214 18.1212 29.3579C18.1212 30.596 18.478 31.5725 19.1917 32.2874C19.9066 33.0011 20.8831 33.3579 22.1212 33.3579ZM18.5974 25.5484C19.6133 25.5484 20.5104 25.4214 21.2888 25.1674C22.066 24.9134 23.0736 24.4055 24.3117 23.6436L18.5974 21.2626C17.6768 20.8817 16.8914 20.8893 16.2412 21.2855C15.5898 21.683 15.2641 22.3103 15.2641 23.1674C15.2641 23.9928 15.5339 24.596 16.0736 24.9769C16.6133 25.3579 17.4545 25.5484 18.5974 25.5484ZM28.1212 36.215C28.9149 36.215 29.5574 35.9369 30.0488 35.3807C30.5415 34.8258 30.6609 34.2468 30.4069 33.6436L27.8355 27.1674C27.2323 28.1833 26.7644 29.1992 26.4317 30.215C26.0977 31.2309 25.9307 32.1515 25.9307 32.9769C25.9307 34.0245 26.1136 34.8258 26.4793 35.3807C26.8437 35.9369 27.391 36.215 28.1212 36.215ZM31.2641 25.6436C31.5815 25.3261 31.8355 24.9052 32.026 24.3807C32.2164 23.8576 32.3117 23.3103 32.3117 22.7388C32.3117 21.723 31.9783 20.8658 31.3117 20.1674C30.645 19.469 29.8196 19.1198 28.8355 19.1198C28.2641 19.1198 27.7244 19.215 27.2164 19.4055C26.7085 19.596 26.2799 19.8658 25.9307 20.215L29.645 21.9293L31.2641 25.6436Z" fill="#00708A"/>
</svg>
