<svg width="64" height="64" viewBox="0 0 64 64" fill="none" xmlns="http://www.w3.org/2000/svg">
<path d="M15.9998 58.666C14.5332 58.666 13.2781 58.1442 12.2345 57.1007C11.1909 56.0571 10.6683 54.8011 10.6665 53.3327V26.666C10.6665 25.1994 11.1892 23.9442 12.2345 22.9007C13.2798 21.8571 14.5349 21.3345 15.9998 21.3327H18.6665V15.9994C18.6665 12.3105 19.9669 9.16646 22.5678 6.56735C25.1687 3.96824 28.3127 2.6678 31.9998 2.66602C35.6869 2.66424 38.8318 3.96468 41.4345 6.56735C44.0372 9.17002 45.3367 12.314 45.3332 15.9994V21.3327H47.9998C49.4665 21.3327 50.7225 21.8554 51.7678 22.9007C52.8132 23.946 53.3349 25.2011 53.3332 26.666V53.3327C53.3332 54.7994 52.8114 56.0554 51.7678 57.1007C50.7243 58.146 49.4683 58.6678 47.9998 58.666H15.9998ZM31.9998 45.3327C33.4665 45.3327 34.7225 44.8109 35.7678 43.7674C36.8132 42.7238 37.3349 41.4678 37.3332 39.9994C37.3314 38.5309 36.8096 37.2758 35.7678 36.234C34.7261 35.1922 33.4701 34.6696 31.9998 34.666C30.5296 34.6625 29.2745 35.1851 28.2345 36.234C27.1945 37.2829 26.6718 38.538 26.6665 39.9994C26.6612 41.4607 27.1838 42.7167 28.2345 43.7674C29.2852 44.818 30.5403 45.3398 31.9998 45.3327ZM23.9998 21.3327H39.9998V15.9994C39.9998 13.7771 39.2221 11.8882 37.6665 10.3327C36.1109 8.77713 34.2221 7.99935 31.9998 7.99935C29.7776 7.99935 27.8887 8.77713 26.3332 10.3327C24.7776 11.8882 23.9998 13.7771 23.9998 15.9994V21.3327Z" fill="#DCDCDC"/>
</svg>
