<svg width="33" height="38" viewBox="0 0 33 38" fill="none" xmlns="http://www.w3.org/2000/svg">
<path d="M25.9515 17.6667C25.5681 17.1667 25.1015 16.7333 24.6681 16.3C23.5515 15.3 22.2848 14.5833 21.2181 13.5333C18.7348 11.1 18.1848 7.08333 19.7681 4C18.1848 4.38333 16.8015 5.25 15.6181 6.2C11.3015 9.66667 9.60148 15.7833 11.6348 21.0333C11.7015 21.2 11.7681 21.3667 11.7681 21.5833C11.7681 21.95 11.5181 22.2833 11.1848 22.4167C10.8015 22.5833 10.4015 22.4833 10.0848 22.2167C9.99022 22.1374 9.91111 22.0414 9.85148 21.9333C7.96815 19.55 7.66815 16.1333 8.93482 13.4C6.15148 15.6667 4.63482 19.5 4.85148 23.1167C4.95148 23.95 5.05148 24.7833 5.33482 25.6167C5.56815 26.6167 6.01815 27.6167 6.51815 28.5C8.31815 31.3833 11.4348 33.45 14.7848 33.8667C18.3515 34.3167 22.1681 33.6667 24.9015 31.2C27.9515 28.4333 29.0181 24 27.4515 20.2L27.2348 19.7667C26.8848 19 25.9515 17.6667 25.9515 17.6667ZM20.6848 28.1667C20.2181 28.5667 19.4515 29 18.8515 29.1667C16.9848 29.8333 15.1181 28.9 14.0181 27.8C16.0015 27.3333 17.1848 25.8667 17.5348 24.3833C17.8181 23.05 17.2848 21.95 17.0681 20.6667C16.8681 19.4333 16.9015 18.3833 17.3515 17.2333C17.6681 17.8667 18.0015 18.5 18.4015 19C19.6848 20.6667 21.7015 21.4 22.1348 23.6667C22.2015 23.9 22.2348 24.1333 22.2348 24.3833C22.2848 25.75 21.6848 27.25 20.6848 28.1667Z" fill="#00708A"/>
</svg>
