<svg width="53" height="53" viewBox="0 0 53 53" fill="none" xmlns="http://www.w3.org/2000/svg">
<path d="M33.9307 32.216C34.6609 34.1208 34.4228 35.8985 33.2164 37.5493C32.0101 39.2001 30.3117 40.0255 28.1212 40.0255C27.0736 40.0255 26.0818 39.7557 25.146 39.216C24.2088 38.6763 23.518 37.962 23.0736 37.0731C20.4387 37.4541 18.2564 36.7792 16.5269 35.0484C14.7961 33.3189 14.0895 31.1049 14.4069 28.4065C13.4545 27.8668 12.7244 27.129 12.2164 26.1931C11.7085 25.256 11.4545 24.1843 11.4545 22.9779C11.4545 21.0414 12.3358 19.4776 14.0984 18.2865C15.8596 17.0966 17.5815 16.8509 19.2641 17.5493L22.2164 18.7874C22.8514 17.8033 23.6926 17.0014 24.7403 16.3817C25.7879 15.7633 26.9149 15.4224 28.1212 15.3589V11.4541H30.9783V15.7398C32.1529 16.089 33.1212 16.6363 33.8831 17.3817C34.645 18.1284 35.2958 19.1684 35.8355 20.5017H40.026V23.3589H36.1212C36.0577 24.5652 35.7326 25.6922 35.146 26.7398C34.558 27.7874 33.772 28.6287 32.7879 29.2636L33.9307 32.216ZM22.1212 33.3589C22.1212 32.5017 22.193 31.6687 22.3364 30.8598C22.4787 30.0496 22.6926 29.2636 22.9783 28.5017C22.2482 28.8509 21.4622 29.0966 20.6203 29.2389C19.7796 29.3823 18.9466 29.4223 18.1212 29.3589C18.1212 30.597 18.478 31.5735 19.1917 32.2884C19.9066 33.002 20.8831 33.3589 22.1212 33.3589ZM18.5974 25.5493C19.6133 25.5493 20.5104 25.4223 21.2888 25.1684C22.066 24.9144 23.0736 24.4065 24.3117 23.6446L18.5974 21.2636C17.6768 20.8827 16.8914 20.8903 16.2412 21.2865C15.5898 21.6839 15.2641 22.3112 15.2641 23.1684C15.2641 23.9938 15.5339 24.597 16.0736 24.9779C16.6133 25.3589 17.4545 25.5493 18.5974 25.5493ZM28.1212 36.216C28.9149 36.216 29.5574 35.9379 30.0488 35.3817C30.5415 34.8268 30.6609 34.2477 30.4069 33.6446L27.8355 27.1684C27.2323 28.1843 26.7644 29.2001 26.4317 30.216C26.0977 31.2319 25.9307 32.1525 25.9307 32.9779C25.9307 34.0255 26.1136 34.8268 26.4793 35.3817C26.8437 35.9379 27.391 36.216 28.1212 36.216ZM31.2641 25.6446C31.5815 25.3271 31.8355 24.9062 32.026 24.3817C32.2164 23.8585 32.3117 23.3112 32.3117 22.7398C32.3117 21.7239 31.9783 20.8668 31.3117 20.1684C30.645 19.47 29.8196 19.1208 28.8355 19.1208C28.2641 19.1208 27.7244 19.216 27.2164 19.4065C26.7085 19.597 26.2799 19.8668 25.9307 20.216L29.645 21.9303L31.2641 25.6446Z" fill="#00708A"/>
</svg>
